<svg xmlns="http://www.w3.org/2000/svg" width="28" height="27" viewBox="0 0 28 27" fill="none">
  <path d="M14 2.21925C7.55998 2.21925 2.33331 7.19038 2.33331 13.3155C2.33331 19.4406 7.55998 24.4118 14 24.4118C20.44 24.4118 25.6666 19.4406 25.6666 13.3155C25.6666 7.19038 20.44 2.21925 14 2.21925ZM14 6.65776C16.2516 6.65776 18.0833 8.39987 18.0833 10.5414C18.0833 12.683 16.2516 14.4251 14 14.4251C11.7483 14.4251 9.91665 12.683 9.91665 10.5414C9.91665 8.39987 11.7483 6.65776 14 6.65776ZM14 22.1925C11.6316 22.1925 8.83165 21.2826 6.83665 18.9968C8.80831 17.5321 11.2933 16.6444 14 16.6444C16.7066 16.6444 19.1916 17.5321 21.1633 18.9968C19.1683 21.2826 16.3683 22.1925 14 22.1925Z" fill="#777777"/>
</svg>